# Object Export From Tinkercad Server 2015

mtllib obj.mtl

o obj_0
v 66.4115 		8.4078 		73.6723
v 66.08 		8.3923 		73.6597
v 66.08 		10.2077 		75.1287
v 66.7374 		8.4542 		73.7098
v 67.052 		8.5305 		73.7716
v 67.35 		8.6355 		73.8565
v 67.6263 		8.7675 		73.9633
v 67.8761 		8.924 		74.09
v 68.0951 		9.1026 		74.2344
v 68.2797 		9.3 		74.3942
v 68.4267 		9.513 		74.5665
v 68.5335 		9.7379 		74.7485
v 68.5983 		9.9708 		74.9369
v 68.62 		10.2077 		75.1287
v 68.5983 		10.4447 		75.3204
v 68.5335 		10.6776 		75.5089
v 68.4267 		10.9025 		75.6908
v 68.2797 		11.1154 		75.8631
v 68.0951 		11.3129 		76.0229
v 67.8761 		11.4914 		76.1674
v 67.6263 		11.648 		76.2941
v 67.35 		11.7799 		76.4008
v 67.052 		11.885 		76.4858
v 66.7374 		11.9613 		76.5476
v 66.4115 		12.0076 		76.585
v 66.08 		12.0231 		76.5976
v 65.7485 		12.0076 		76.585
v 65.4226 		11.9613 		76.5476
v 65.108 		11.885 		76.4858
v 64.81 		11.7799 		76.4008
v 64.5337 		11.648 		76.2941
v 64.2839 		11.4914 		76.1674
v 64.0649 		11.3129 		76.0229
v 63.8803 		11.1154 		75.8631
v 63.7333 		10.9025 		75.6908
v 63.6265 		10.6776 		75.5089
v 63.5617 		10.4447 		75.3204
v 63.54 		10.2077 		75.1287
v 63.5617 		9.9708 		74.9369
v 63.6265 		9.7379 		74.7485
v 63.7333 		9.513 		74.5665
v 63.8803 		9.3 		74.3942
v 64.0649 		9.1026 		74.2344
v 64.2839 		8.924 		74.09
v 64.5337 		8.7675 		73.9633
v 64.81 		8.6355 		73.8565
v 65.108 		8.5305 		73.7716
v 65.4226 		8.4542 		73.7098
v 65.7485 		8.4078 		73.6723
v 66.08 		3.1517 		86.3811
v 66.4115 		3.1672 		86.3937
v 66.08 		4.9671 		87.8501
v 66.7374 		3.2135 		86.4312
v 67.052 		3.2899 		86.4929
v 67.35 		3.3949 		86.5779
v 67.6263 		3.5268 		86.6847
v 67.8761 		3.6834 		86.8114
v 68.0951 		3.8619 		86.9558
v 68.2797 		4.0594 		87.1156
v 68.4267 		4.2724 		87.2879
v 68.5335 		4.4972 		87.4699
v 68.5983 		4.7301 		87.6583
v 68.62 		4.9671 		87.8501
v 68.5983 		5.204 		88.0418
v 68.5335 		5.4369 		88.2303
v 68.4267 		5.6618 		88.4122
v 68.2797 		5.8748 		88.5845
v 68.0951 		6.0722 		88.7443
v 67.8761 		6.2508 		88.8888
v 67.6263 		6.4073 		89.0154
v 67.35 		6.5393 		89.1222
v 67.052 		6.6443 		89.2072
v 66.7374 		6.7206 		89.2689
v 66.4115 		6.767 		89.3064
v 66.08 		6.7825 		89.319
v 65.7485 		6.767 		89.3064
v 65.4226 		6.7206 		89.2689
v 65.108 		6.6443 		89.2072
v 64.81 		6.5393 		89.1222
v 64.5337 		6.4073 		89.0154
v 64.2839 		6.2508 		88.8888
v 64.0649 		6.0722 		88.7443
v 63.8803 		5.8748 		88.5845
v 63.7333 		5.6618 		88.4122
v 63.6265 		5.4369 		88.2303
v 63.5617 		5.204 		88.0418
v 63.54 		4.9671 		87.8501
v 63.5617 		4.7301 		87.6583
v 63.6265 		4.4972 		87.4699
v 63.7333 		4.2724 		87.2879
v 63.8803 		4.0594 		87.1156
v 64.0649 		3.8619 		86.9558
v 64.2839 		3.6834 		86.8114
v 64.5337 		3.5268 		86.6847
v 64.81 		3.3949 		86.5779
v 65.108 		3.2899 		86.4929
v 65.4226 		3.2135 		86.4312
v 65.7485 		3.1672 		86.3937
# 98 vertices

g group_0_15277357

usemtl color_15277357
s 0

f 1 	2 	3
f 4 	1 	3
f 5 	4 	3
f 6 	5 	3
f 7 	6 	3
f 8 	7 	3
f 9 	8 	3
f 10 	9 	3
f 11 	10 	3
f 12 	11 	3
f 13 	12 	3
f 14 	13 	3
f 15 	14 	3
f 16 	15 	3
f 17 	16 	3
f 18 	17 	3
f 19 	18 	3
f 20 	19 	3
f 21 	20 	3
f 22 	21 	3
f 23 	22 	3
f 24 	23 	3
f 25 	24 	3
f 26 	25 	3
f 27 	26 	3
f 28 	27 	3
f 29 	28 	3
f 30 	29 	3
f 31 	30 	3
f 32 	31 	3
f 33 	32 	3
f 34 	33 	3
f 35 	34 	3
f 36 	35 	3
f 37 	36 	3
f 38 	37 	3
f 39 	38 	3
f 40 	39 	3
f 41 	40 	3
f 42 	41 	3
f 43 	42 	3
f 44 	43 	3
f 45 	44 	3
f 46 	45 	3
f 47 	46 	3
f 48 	47 	3
f 49 	48 	3
f 2 	49 	3
f 50 	51 	52
f 51 	53 	52
f 53 	54 	52
f 54 	55 	52
f 55 	56 	52
f 56 	57 	52
f 57 	58 	52
f 58 	59 	52
f 59 	60 	52
f 60 	61 	52
f 61 	62 	52
f 62 	63 	52
f 63 	64 	52
f 64 	65 	52
f 65 	66 	52
f 66 	67 	52
f 67 	68 	52
f 68 	69 	52
f 69 	70 	52
f 70 	71 	52
f 71 	72 	52
f 72 	73 	52
f 73 	74 	52
f 74 	75 	52
f 75 	76 	52
f 76 	77 	52
f 77 	78 	52
f 78 	79 	52
f 79 	80 	52
f 80 	81 	52
f 81 	82 	52
f 82 	83 	52
f 83 	84 	52
f 84 	85 	52
f 85 	86 	52
f 86 	87 	52
f 87 	88 	52
f 88 	89 	52
f 89 	90 	52
f 90 	91 	52
f 91 	92 	52
f 92 	93 	52
f 93 	94 	52
f 94 	95 	52
f 95 	96 	52
f 96 	97 	52
f 97 	98 	52
f 98 	50 	52
f 2 	1 	1
f 1 	4 	4
f 4 	5 	5
f 5 	6 	6
f 6 	7 	7
f 7 	8 	8
f 8 	9 	9
f 9 	10 	10
f 10 	11 	11
f 11 	12 	12
f 12 	13 	13
f 13 	14 	14
f 14 	15 	15
f 15 	16 	16
f 16 	17 	17
f 17 	18 	18
f 18 	19 	19
f 19 	20 	20
f 20 	21 	21
f 21 	22 	22
f 22 	23 	23
f 23 	24 	24
f 24 	25 	25
f 25 	26 	26
f 26 	27 	27
f 27 	28 	28
f 28 	29 	29
f 29 	30 	30
f 30 	31 	31
f 31 	32 	32
f 32 	33 	33
f 33 	34 	34
f 34 	35 	35
f 35 	36 	36
f 36 	37 	37
f 37 	38 	38
f 38 	39 	39
f 39 	40 	40
f 40 	41 	41
f 41 	42 	42
f 42 	43 	43
f 43 	44 	44
f 44 	45 	45
f 45 	46 	46
f 46 	47 	47
f 47 	48 	48
f 48 	49 	49
f 49 	2 	2
f 2 	1 	51
f 2 	51 	50
f 1 	4 	53
f 1 	53 	51
f 4 	5 	54
f 4 	54 	53
f 5 	6 	55
f 5 	55 	54
f 6 	7 	56
f 6 	56 	55
f 7 	8 	57
f 7 	57 	56
f 8 	9 	58
f 8 	58 	57
f 9 	10 	59
f 9 	59 	58
f 10 	11 	60
f 10 	60 	59
f 11 	12 	61
f 11 	61 	60
f 12 	13 	62
f 12 	62 	61
f 13 	14 	63
f 13 	63 	62
f 14 	15 	64
f 14 	64 	63
f 15 	16 	65
f 15 	65 	64
f 16 	17 	66
f 16 	66 	65
f 17 	18 	67
f 17 	67 	66
f 18 	19 	68
f 18 	68 	67
f 19 	20 	69
f 19 	69 	68
f 20 	21 	70
f 20 	70 	69
f 21 	22 	71
f 21 	71 	70
f 22 	23 	72
f 22 	72 	71
f 23 	24 	73
f 23 	73 	72
f 24 	25 	74
f 24 	74 	73
f 25 	26 	75
f 25 	75 	74
f 26 	27 	76
f 26 	76 	75
f 27 	28 	77
f 27 	77 	76
f 28 	29 	78
f 28 	78 	77
f 29 	30 	79
f 29 	79 	78
f 30 	31 	80
f 30 	80 	79
f 31 	32 	81
f 31 	81 	80
f 32 	33 	82
f 32 	82 	81
f 33 	34 	83
f 33 	83 	82
f 34 	35 	84
f 34 	84 	83
f 35 	36 	85
f 35 	85 	84
f 36 	37 	86
f 36 	86 	85
f 37 	38 	87
f 37 	87 	86
f 38 	39 	88
f 38 	88 	87
f 39 	40 	89
f 39 	89 	88
f 40 	41 	90
f 40 	90 	89
f 41 	42 	91
f 41 	91 	90
f 42 	43 	92
f 42 	92 	91
f 43 	44 	93
f 43 	93 	92
f 44 	45 	94
f 44 	94 	93
f 45 	46 	95
f 45 	95 	94
f 46 	47 	96
f 46 	96 	95
f 47 	48 	97
f 47 	97 	96
f 48 	49 	98
f 48 	98 	97
f 49 	2 	50
f 49 	50 	98
f 50 	51 	51
f 51 	53 	53
f 53 	54 	54
f 54 	55 	55
f 55 	56 	56
f 56 	57 	57
f 57 	58 	58
f 58 	59 	59
f 59 	60 	60
f 60 	61 	61
f 61 	62 	62
f 62 	63 	63
f 63 	64 	64
f 64 	65 	65
f 65 	66 	66
f 66 	67 	67
f 67 	68 	68
f 68 	69 	69
f 69 	70 	70
f 70 	71 	71
f 71 	72 	72
f 72 	73 	73
f 73 	74 	74
f 74 	75 	75
f 75 	76 	76
f 76 	77 	77
f 77 	78 	78
f 78 	79 	79
f 79 	80 	80
f 80 	81 	81
f 81 	82 	82
f 82 	83 	83
f 83 	84 	84
f 84 	85 	85
f 85 	86 	86
f 86 	87 	87
f 87 	88 	88
f 88 	89 	89
f 89 	90 	90
f 90 	91 	91
f 91 	92 	92
f 92 	93 	93
f 93 	94 	94
f 94 	95 	95
f 95 	96 	96
f 96 	97 	97
f 97 	98 	98
f 98 	50 	50
# 288 faces

 #end of obj_0

o obj_1
v 71.16 		-4.0982 		99.479
v 71.16 		-4.0982 		91.857
v 71.16 		-2.5396 		99.479
v 71.16 		-9.8209 		91.857
v 71.16 		-9.8209 		84.239
v 71.16 		-2.5396 		84.239
v 61 		-2.5396 		99.479
v 61 		-4.0982 		91.857
v 61 		-4.0982 		99.479
v 61 		-9.8209 		91.857
v 69.6 		4.9498 		90.777
v 61 		-2.5396 		84.239
v 61 		-9.8209 		84.239
v 62.56 		4.9498 		90.777
v 63.761 		4.9498 		92.342
v 62.78 		4.9498 		91.224
v 63.057 		4.9498 		91.638
v 63.386 		4.9498 		92.013
v 69.76 		4.9498 		90.305
v 69.89 		-2.3316 		89.319
v 69.857 		-2.3316 		88.822
v 62.4 		4.9498 		90.305
v 65.094 		-2.3316 		85.639
v 69.857 		-2.3316 		89.816
v 64.622 		-2.3316 		85.799
v 69.6 		-2.3316 		87.861
v 69.76 		-2.3316 		90.305
v 65.583 		-2.3316 		85.542
v 69.38 		-2.3316 		87.414
v 69.38 		4.9498 		91.224
v 69.6 		-2.3316 		90.777
v 66.08 		-2.3316 		85.509
v 69.76 		-2.3316 		88.333
v 69.103 		4.9498 		91.638
v 69.38 		-2.3316 		91.224
v 62.303 		4.9498 		89.816
v 66.08 		4.9498 		85.509
v 65.583 		4.9498 		85.542
v 65.094 		4.9498 		85.639
v 65.094 		-2.3316 		92.999
v 64.622 		-2.3316 		92.839
v 62.27 		4.9498 		89.319
v 64.175 		-2.3316 		92.619
v 64.622 		4.9498 		85.799
v 64.175 		4.9498 		86.019
v 69.103 		-2.3316 		91.638
v 63.761 		4.9498 		86.296
v 68.774 		4.9498 		92.013
v 63.761 		-2.3316 		92.342
v 63.386 		4.9498 		86.625
v 62.4 		-2.3316 		90.305
v 63.057 		4.9498 		87
v 62.78 		4.9498 		87.414
v 67.985 		-2.3316 		92.619
v 62.56 		4.9498 		87.861
v 67.538 		-2.3316 		92.839
v 67.066 		-2.3316 		92.999
v 62.303 		4.9498 		88.822
v 66.577 		-2.3316 		93.096
v 66.08 		-2.3316 		93.129
v 65.583 		-2.3316 		93.096
v 62.303 		-2.3316 		89.816
v 63.386 		-2.3316 		92.013
v 62.4 		4.9498 		88.333
v 62.27 		-2.3316 		89.319
v 63.057 		-2.3316 		91.638
v 62.78 		-2.3316 		91.224
v 62.303 		-2.3316 		88.822
v 67.985 		4.9498 		92.619
v 62.4 		-2.3316 		88.333
v 68.774 		-2.3316 		92.013
v 68.399 		-2.3316 		92.342
v 67.538 		4.9498 		92.839
v 62.56 		-2.3316 		90.777
v 67.066 		4.9498 		92.999
v 66.577 		4.9498 		93.096
v 66.577 		-2.3316 		85.542
v 67.066 		-2.3316 		85.639
v 67.538 		-2.3316 		85.799
v 67.985 		-2.3316 		86.019
v 68.399 		-2.3316 		86.296
v 68.774 		-2.3316 		86.625
v 69.103 		-2.3316 		87
v 66.08 		4.9498 		93.129
v 62.56 		-2.3316 		87.861
v 65.583 		4.9498 		93.096
v 65.094 		4.9498 		92.999
v 62.78 		-2.3316 		87.414
v 64.622 		4.9498 		92.839
v 63.057 		-2.3316 		87
v 64.175 		4.9498 		92.619
v 63.386 		-2.3316 		86.625
v 69.857 		4.9498 		88.822
v 63.761 		-2.3316 		86.296
v 64.175 		-2.3316 		86.019
v 69.89 		4.9498 		89.319
v 69.857 		4.9498 		89.816
v 68.399 		4.9498 		92.342
v 66.577 		4.9498 		85.542
v 67.066 		4.9498 		85.639
v 69.76 		4.9498 		88.333
v 69.6 		4.9498 		87.861
v 69.38 		4.9498 		87.414
v 69.103 		4.9498 		87
v 68.774 		4.9498 		86.625
v 68.399 		4.9498 		86.296
v 67.985 		4.9498 		86.019
v 67.538 		4.9498 		85.799
# 108 vertices

g group_1_15277357

usemtl color_15277357
s 0

f 104 	101 	100
f 99 	100 	101
f 102 	103 	100
f 104 	100 	103
f 105 	106 	107
f 105 	110 	106
f 110 	111 	106
f 108 	106 	111
f 107 	99 	105
f 101 	105 	99
f 118 	119 	191
f 103 	111 	110
f 103 	110 	104
f 114 	135 	112
f 113 	189 	135
f 116 	113 	135
f 117 	125 	122
f 128 	133 	109
f 125 	117 	129
f 109 	129 	117
f 115 	114 	165
f 102 	108 	111
f 102 	111 	103
f 133 	129 	109
f 133 	128 	132
f 134 	160 	120
f 140 	160 	134
f 112 	120 	149
f 140 	156 	166
f 137 	142 	136
f 142 	143 	136
f 143 	145 	136
f 145 	148 	136
f 148 	150 	136
f 150 	151 	136
f 151 	153 	136
f 153 	162 	136
f 162 	156 	136
f 147 	168 	141
f 141 	168 	139
f 154 	155 	168
f 139 	168 	138
f 155 	157 	168
f 157 	158 	168
f 159 	168 	158
f 138 	168 	159
f 114 	112 	165
f 161 	147 	116
f 113 	116 	147
f 160 	149 	120
f 156 	162 	166
f 116 	115 	164
f 116 	164 	161
f 140 	163 	160
f 140 	135 	156
f 134 	135 	140
f 120 	135 	134
f 120 	112 	135
f 135 	136 	156
f 163 	140 	166
f 115 	165 	164
f 130 	135 	175
f 166 	162 	168
f 165 	112 	172
f 119 	118 	175
f 118 	122 	175
f 122 	125 	175
f 125 	129 	175
f 129 	133 	175
f 144 	175 	133
f 169 	175 	144
f 152 	154 	168
f 152 	167 	154
f 171 	154 	167
f 173 	155 	154
f 173 	154 	171
f 132 	144 	133
f 112 	149 	172
f 155 	173 	157
f 174 	157 	173
f 169 	144 	132
f 176 	177 	175
f 177 	178 	175
f 178 	179 	175
f 175 	179 	180
f 175 	180 	181
f 175 	181 	127
f 175 	127 	124
f 175 	124 	131
f 131 	119 	175
f 174 	182 	158
f 158 	157 	174
f 183 	168 	153
f 162 	153 	168
f 182 	184 	158
f 184 	159 	158
f 167 	152 	170
f 138 	159 	185
f 184 	185 	159
f 153 	151 	186
f 153 	186 	183
f 170 	152 	168
f 147 	161 	164
f 147 	164 	165
f 147 	165 	172
f 147 	172 	149
f 185 	187 	139
f 185 	139 	138
f 142 	123 	143
f 101 	104 	105
f 188 	186 	150
f 151 	150 	186
f 105 	104 	110
f 141 	139 	189
f 187 	189 	139
f 137 	121 	123
f 137 	123 	142
f 107 	106 	100
f 107 	100 	99
f 150 	148 	190
f 150 	190 	188
f 102 	100 	106
f 102 	106 	108
f 147 	141 	113
f 189 	113 	141
f 121 	137 	126
f 136 	126 	137
f 145 	192 	190
f 145 	190 	148
f 175 	169 	130
f 126 	130 	169
f 169 	170 	168
f 168 	183 	169
f 183 	186 	169
f 186 	188 	169
f 188 	190 	169
f 190 	192 	169
f 192 	193 	169
f 193 	123 	169
f 123 	121 	169
f 126 	169 	121
f 131 	191 	119
f 135 	130 	126
f 135 	126 	136
f 192 	145 	193
f 143 	193 	145
f 166 	168 	147
f 163 	166 	147
f 149 	160 	147
f 163 	147 	160
f 194 	118 	191
f 146 	169 	132
f 123 	193 	143
f 204 	179 	178
f 118 	194 	122
f 195 	122 	194
f 146 	196 	170
f 146 	170 	169
f 180 	179 	204
f 187 	135 	189
f 185 	135 	187
f 184 	135 	185
f 182 	135 	184
f 174 	135 	182
f 173 	197 	174
f 171 	197 	173
f 167 	197 	171
f 196 	197 	167
f 115 	116 	135
f 117 	122 	195
f 196 	167 	170
f 197 	175 	135
f 132 	197 	146
f 128 	197 	132
f 109 	197 	128
f 117 	197 	109
f 195 	197 	117
f 194 	197 	195
f 191 	197 	194
f 146 	197 	196
f 114 	115 	135
f 198 	176 	175
f 198 	175 	197
f 200 	202 	199
f 201 	202 	200
f 202 	203 	199
f 191 	199 	203
f 191 	203 	204
f 191 	204 	205
f 191 	205 	206
f 191 	206 	198
f 135 	174 	197
f 198 	197 	191
f 176 	198 	177
f 206 	177 	198
f 205 	178 	177
f 205 	177 	206
f 178 	205 	204
f 203 	180 	204
f 180 	203 	181
f 202 	181 	203
f 201 	127 	181
f 201 	181 	202
f 200 	124 	127
f 200 	127 	201
f 124 	200 	131
f 199 	131 	200
f 131 	199 	191
# 208 faces

 #end of obj_1

